<svg width="42" height="27" viewBox="0 0 42 27" fill="none" xmlns="http://www.w3.org/2000/svg">
<path d="M8.60001 5.29064C15.4476 -1.69844 26.5497 -1.69844 33.3973 5.29064L34.2214 6.13179C34.5638 6.48124 34.5638 7.04782 34.2214 7.39728L31.4022 10.2747C31.2311 10.4494 30.9535 10.4494 30.7823 10.2747L29.6482 9.11716C24.8712 4.24139 17.1261 4.24139 12.349 9.11716L11.1345 10.3568C10.9634 10.5315 10.6858 10.5315 10.5146 10.3568L7.69547 7.47936C7.35309 7.12991 7.35309 6.56333 7.69547 6.21388L8.60001 5.29064ZM39.2275 11.2414L41.7366 13.8023C42.0789 14.1518 42.0789 14.7183 41.7366 15.0678L30.4231 26.6152C30.0808 26.9647 29.5256 26.9647 29.1833 26.6152C29.1833 26.6152 29.1833 26.6152 29.1833 26.6152L21.1537 18.4197C21.0681 18.3323 20.9293 18.3323 20.8437 18.4197C20.8437 18.4197 20.8437 18.4197 20.8437 18.4197L12.8143 26.6152C12.4719 26.9647 11.9168 26.9647 11.5744 26.6152C11.5744 26.6152 11.5744 26.6152 11.5744 26.6152L0.26069 15.0676C-0.0816884 14.7182 -0.0816884 14.1516 0.26069 13.8022L2.76973 11.2413C3.11211 10.8918 3.66722 10.8918 4.0096 11.2413L12.0393 19.4369C12.1249 19.5243 12.2637 19.5243 12.3493 19.4369C12.3493 19.4369 12.3493 19.4369 12.3493 19.4369L20.3786 11.2413C20.7209 10.8918 21.276 10.8918 21.6184 11.2412C21.6184 11.2412 21.6184 11.2412 21.6184 11.2412L29.6481 19.4369C29.7337 19.5243 29.8725 19.5243 29.9581 19.4369L37.9877 11.2414C38.33 10.892 38.8851 10.892 39.2275 11.2414Z" fill="#3B99FC"/>
</svg>
