<svg width="24" height="24" viewBox="0 0 24 24" fill="none" xmlns="http://www.w3.org/2000/svg">
<path d="M4 6C4 5.46957 4.21071 4.96086 4.58579 4.58579C4.96086 4.21071 5.46957 4 6 4H16C16.2652 4 16.5196 4.10536 16.7071 4.29289C16.8946 4.48043 17 4.73478 17 5V8V8C18.1046 8 19 8.89543 19 10V12V9C19 8.73478 18.8946 8.48043 18.7071 8.29289C18.5196 8.10536 18.2652 8 18 8H6C5.46957 8 4.96086 7.78929 4.58579 7.41421C4.21071 7.03914 4 6.53043 4 6ZM4 6V18C4 18.5304 4.21071 19.0391 4.58579 19.4142C4.96086 19.7893 5.46957 20 6 20H18C18.2652 20 18.5196 19.8946 18.7071 19.7071C18.8946 19.5196 19 19.2652 19 19V16" stroke="#7755FF" stroke-width="2" stroke-linecap="round" stroke-linejoin="round"/>
<path d="M20 12V16H16C15.4696 16 14.9609 15.7893 14.5858 15.4142C14.2107 15.0391 14 14.5304 14 14C14 13.4696 14.2107 12.9609 14.5858 12.5858C14.9609 12.2107 15.4696 12 16 12H20Z" stroke="#7755FF" stroke-width="2" stroke-linecap="round" stroke-linejoin="round"/>
</svg>
