<svg fill="#36a4ed" xmlns="http://www.w3.org/2000/svg"  viewBox="0 0 30 30" width="50px" height="50px"><path d="M27,15c0,6.627-5.373,12-12,12S3,21.627,3,15S8.373,3,15,3S27,8.373,27,15z M10.403,11.021 c0.935,0,1.496-0.561,1.496-1.309c0-0.748-0.561-1.309-1.403-1.309C9.561,8.403,9,8.964,9,9.712 C9,10.46,9.561,11.022,10.403,11.021z M9,20h3v-8H9V20z M19.459,12c-1.412,0-2.165,0.465-2.541,1.116V12H14v8h2.917 c0,0,0-4.186,0-4.372c0-1.302,0.942-1.488,1.224-1.488s1.035,0.279,1.035,1.488V20H22v-4.372C22,13.116,20.871,12,19.459,12z"/></svg>